{
  "accessors": [
    {
      "bufferView": 2,
      "componentType": 5126,
      "count": 38754,
      "max": [
        11.38155460357666,
        10.08678150177002,
        6.3668479919433594
      ],
      "min": [
        -11.557633399963379,
        -10.804858207702637,
        -6.4745912551879883
      ],
      "type": "VEC3"
    },
    {
      "bufferView": 2,
      "byteOffset": 465048,
      "componentType": 5126,
      "count": 38754,
      "max": [
        0.9997551441192627,
        0.99995958805084229,
        1
      ],
      "min": [
        -0.99882358312606812,
        -0.99999427795410156,
        -0.99999463558197021
      ],
      "type": "VEC3"
    },
    {
      "bufferView": 3,
      "componentType": 5126,
      "count": 38754,
      "max": [
        0.9999997615814209,
        0.99998098611831665,
        0.99996107816696167,
        1
      ],
      "min": [
        -0.99999964237213135,
        -0.99999850988388062,
        -0.99923056364059448,
        -1
      ],
      "type": "VEC4"
    },
    {
      "bufferView": 3,
      "byteOffset": 620064,
      "componentType": 5126,
      "count": 38754,
      "max": [
        0,
        0,
        0,
        0
      ],
      "min": [
        0,
        0,
        0,
        0
      ],
      "type": "VEC4"
    },
    {
      "bufferView": 1,
      "componentType": 5126,
      "count": 38754,
      "max": [
        0.99179530143737793,
        0.99900031089782715
      ],
      "min": [
        0.0012602952774614096,
        0.00099817907903343439
      ],
      "type": "VEC2"
    },
    {
      "bufferView": 0,
      "componentType": 5125,
      "count": 217953,
      "max": [
        38753
      ],
      "min": [
        0
      ],
      "type": "SCALAR"
    }
  ],
  "asset": {
    "extras": {
      "author": "3dhdscan (https://sketchfab.com/3dhdscan)",
      "license": "CC-BY-4.0 (http://creativecommons.org/licenses/by/4.0/)",
      "source": "https://sketchfab.com/models/2c2c9220513d425789991a002d918c26",
      "title": "Ufo Crashste Brno"
    },
    "generator": "Sketchfab-3.23.4",
    "version": "2.0"
  },
  "bufferViews": [
    {
      "buffer": 0,
      "byteLength": 871812,
      "byteOffset": 0,
      "name": "floatBufferViews",
      "target": 34963
    },
    {
      "buffer": 0,
      "byteLength": 310032,
      "byteOffset": 871812,
      "byteStride": 8,
      "name": "floatBufferViews",
      "target": 34962
    },
    {
      "buffer": 0,
      "byteLength": 930096,
      "byteOffset": 1181844,
      "byteStride": 12,
      "name": "floatBufferViews",
      "target": 34962
    },
    {
      "buffer": 0,
      "byteLength": 1240128,
      "byteOffset": 2111940,
      "byteStride": 16,
      "name": "floatBufferViews",
      "target": 34962
    }
  ],
  "buffers": [
    {
      "byteLength": 3352068,
      "uri": "scene.bin"
    }
  ],
  "images": [
    {
      "uri": "textures/ufo_crashste_brno_15mb_Material_u1_v1_baseColor.png"
    },
    {
      "uri": "textures/ufo_crashste_brno_15mb_Material_u1_v1_metallicRoughness.png"
    },
    {
      "uri": "textures/ufo_crashste_brno_15mb_Material_u1_v1_normal.jpeg"
    }
  ],
  "materials": [
    {
      "alphaMode": "BLEND",
      "doubleSided": false,
      "name": "ufo_crashste_brno_15mb_Material_u1_v1",
      "normalTexture": {
        "index": 2,
        "scale": 1,
        "texCoord": 0
      },
      "occlusionTexture": {
        "index": 1,
        "strength": 1,
        "texCoord": 0
      },
      "pbrMetallicRoughness": {
        "baseColorFactor": [
          1,
          1,
          1,
          1
        ],
        "baseColorTexture": {
          "index": 0,
          "texCoord": 0
        },
        "metallicFactor": 0,
        "roughnessFactor": 0.69340701220000001
      }
    }
  ],
  "meshes": [
    {
      "name": "ufo_crashste_brno_ufo_crashste_brno_15mb_Material_u1_v1_0",
      "primitives": [
        {
          "attributes": {
            "COLOR_0": 3,
            "NORMAL": 1,
            "POSITION": 0,
            "TANGENT": 2,
            "TEXCOORD_0": 4
          },
          "indices": 5,
          "material": 0,
          "mode": 4
        }
      ]
    }
  ],
  "nodes": [
    {
      "children": [
        1
      ],
      "name": "RootNode (gltf orientation matrix)",
      "rotation": [
        -0.70710678118654746,
        -0,
        -0,
        0.70710678118654757
      ]
    },
    {
      "children": [
        2
      ],
      "name": "RootNode (model correction matrix)"
    },
    {
      "children": [
        3
      ],
      "matrix": [
        1,
        0,
        0,
        0,
        0,
        0,
        1,
        0,
        0,
        -1,
        0,
        0,
        0,
        0,
        0,
        1
      ],
      "name": "ufo_crashste_brno.FBX"
    },
    {
      "children": [
        4
      ],
      "name": "RootNode"
    },
    {
      "children": [
        5
      ],
      "matrix": [
        0.0099999997764825821,
        0,
        0,
        0,
        0,
        2.2204459996194763e-18,
        -0.0099999997764825821,
        0,
        0,
        0.0099999997764825821,
        2.2204459996194763e-18,
        0,
        -0.0060158632695674896,
        0.064745910465717316,
        0.0080392500385642052,
        1
      ],
      "name": "ufo_crashste_brno"
    },
    {
      "mesh": 0,
      "name": "ufo_crashste_brno_ufo_crashste_brno_15mb_Material_u1_v1_0"
    }
  ],
  "samplers": [
    {
      "magFilter": 9729,
      "minFilter": 9987,
      "wrapS": 33071,
      "wrapT": 33071
    },
    {
      "magFilter": 9729,
      "minFilter": 9987,
      "wrapS": 10497,
      "wrapT": 10497
    }
  ],
  "scene": 0,
  "scenes": [
    {
      "name": "OSG_Scene",
      "nodes": [
        0
      ]
    }
  ],
  "textures": [
    {
      "sampler": 0,
      "source": 0
    },
    {
      "sampler": 1,
      "source": 1
    },
    {
      "sampler": 0,
      "source": 2
    }
  ]
}

